<?xml version="1.0" encoding="UTF-8"?>
<!-- Generator: Adobe Illustrator 15.0.2, SVG Export Plug-In . SVG Version: 6.00 Build 0)  -->
<!DOCTYPE svg PUBLIC "-//W3C//DTD SVG 1.1//EN" "http://www.w3.org/Graphics/SVG/1.1/DTD/svg11.dtd">
<svg xmlns="http://www.w3.org/2000/svg" xmlns:xlink="http://www.w3.org/1999/xlink" version="1.1" id="Layer_1" x="0px" y="0px" width="512px" height="512px" viewBox="0 0 512 568.889" enable-background="new 0 0 512 568.889" xml:space="preserve">
<path d="M284.444,128c39.25,0,71.111,31.861,71.111,71.111c0,20.902-9.25,39.541-23.611,52.625l103.25,103.25  c27.736-52.903,48.361-107.944,48.361-155.875C483.556,89.174,394.389,0,284.444,0c-56.319,0-107.09,23.465-143.215,61.014  l90.59,90.598C244.764,137.243,263.535,128,284.444,128z M408.889,401.069L277.333,269.514l-3.132-3.132L36.125,28.444L0,64.708  l90.451,90.459c-3.271,14.076-5.118,28.729-5.118,43.944c0,149.333,199.111,369.777,199.111,369.777s47.5-52.625,96-123.736  l95.292,95.292L512,504.181L408.889,401.069z" fill="#000000"/>
</svg>
