<?xml version="1.0" encoding="UTF-8"?>
<!-- Generator: Adobe Illustrator 15.0.2, SVG Export Plug-In . SVG Version: 6.00 Build 0)  -->
<!DOCTYPE svg PUBLIC "-//W3C//DTD SVG 1.1//EN" "http://www.w3.org/Graphics/SVG/1.1/DTD/svg11.dtd">
<svg xmlns="http://www.w3.org/2000/svg" xmlns:xlink="http://www.w3.org/1999/xlink" version="1.1" id="Layer_1" x="0px" y="0px" width="512px" height="512px" viewBox="0 0 512 128" enable-background="new 0 0 512 128" xml:space="preserve">
<path d="M64,0C28.641,0,0,28.641,0,64s28.641,64,64,64s64-28.641,64-64S99.359,0,64,0z M448,0c-35.359,0-64,28.641-64,64  s28.641,64,64,64s64-28.641,64-64S483.359,0,448,0z M256,0c-35.359,0-64,28.641-64,64s28.641,64,64,64s64-28.641,64-64  S291.359,0,256,0z" fill="#000000"/>
</svg>
