<?xml version="1.0" encoding="UTF-8"?>
<!-- Generator: Adobe Illustrator 15.0.2, SVG Export Plug-In . SVG Version: 6.00 Build 0)  -->
<!DOCTYPE svg PUBLIC "-//W3C//DTD SVG 1.1//EN" "http://www.w3.org/Graphics/SVG/1.1/DTD/svg11.dtd">
<svg xmlns="http://www.w3.org/2000/svg" xmlns:xlink="http://www.w3.org/1999/xlink" version="1.1" id="Layer_1" x="0px" y="0px" width="512px" height="512px" viewBox="0 0 512 512" enable-background="new 0 0 512 512" xml:space="preserve">
<path d="M398.223,0H56.889C25.458,0,0,25.458,0,56.889v398.223C0,486.542,25.458,512,56.889,512h398.223  C486.542,512,512,486.542,512,455.111V113.777L398.223,0z M256,455.111c-47.076,0-85.333-38.25-85.333-85.334  c0-47.083,38.257-85.333,85.333-85.333c47.083,0,85.333,38.25,85.333,85.333C341.333,416.861,303.083,455.111,256,455.111z   M341.333,170.667H56.889V56.889h284.444V170.667z" fill="#000000"/>
</svg>